<svg width="568" height="585" viewBox="0 0 568 585" fill="none" xmlns="http://www.w3.org/2000/svg">
<path d="M428.322 86.8252C425.252 67.8889 418.769 51.6821 403.756 38.546C401.027 36.1577 394.885 41.105 397.444 43.664C413.992 59.5296 418.769 76.2482 419.281 101.497C419.451 110.88 419.11 121.798 418.086 133.74C417.233 142.952 426.616 142.44 427.64 136.81C429.346 125.38 430.199 97.9141 428.322 86.8252Z" fill="#EB8382"/>
<path d="M410.239 52.7058C408.874 50.4881 407.339 48.4409 405.633 46.3937C403.245 43.8348 400.174 41.617 400.515 38.0344C397.956 38.8874 395.738 41.7876 397.615 43.4935C414.163 59.3591 418.94 76.0777 419.451 101.326C419.622 110.709 419.281 121.627 418.257 133.569C418.087 136.469 418.769 138.346 419.963 139.54C424.228 130.157 423.887 117.874 424.058 108.321C424.228 95.0141 422.863 81.5369 418.428 68.9126C416.21 63.2829 413.48 57.8238 410.239 52.7058Z" fill="#C37A87"/>
<path d="M385.161 44.6876C365.713 20.9745 330.911 7.83845 285.361 25.0688C264.719 32.9163 249.877 45.0288 241.006 61.4062C229.064 83.4133 228.552 122.992 235.376 149.435C236.059 152.847 236.912 156.088 237.935 159.329C243.906 181.166 255.166 200.955 273.761 215.115C291.162 228.08 313.339 233.369 335.005 229.445C356.671 225.351 375.266 211.362 386.697 193.619C414.163 150.629 418.598 85.4605 385.161 44.6876Z" fill="#521E3F"/>
<path d="M537.983 456.975C536.448 448.104 534.401 439.403 531.842 430.703C528.6 419.955 521.265 412.108 517.341 401.701C514.952 395.56 516.317 386.859 514.099 380.718C511.711 374.576 505.228 371.847 502.84 365.705C500.452 359.564 501.987 350.181 499.428 344.21C494.822 333.974 489.704 323.738 483.904 314.185C474.18 298.149 461.043 281.43 444.666 271.365C443.131 270.341 441.595 269.488 440.06 268.635C429.483 261.641 415.323 257.034 400.652 250.893C388.028 245.604 338.384 234.516 293.005 234.516C251.038 234.686 212.653 245.604 208.9 246.628C180.922 254.305 172.392 254.987 146.973 277.506C136.908 286.377 127.013 295.419 116.606 303.778C111.318 308.043 102.276 308.043 96.8171 311.796C89.652 316.914 85.8989 325.785 78.0514 330.05C55.5325 342.163 30.1134 343.016 15.6126 365.535C9.30045 375.259 3.50012 395.901 3.50012 407.502C3.50012 416.885 8.27687 425.414 15.2714 431.385C29.0898 443.157 50.2439 444.18 67.4743 443.498C92.5522 442.304 117.289 434.627 140.661 425.926C163.009 417.567 171.539 425.244 170.515 442.645C169.662 457.828 168.809 473.011 168.298 488.365C167.615 504.913 162.512 531.452 162 548C161.488 566.254 238.018 577.6 257.125 580.5C274.339 583.114 258.293 580.602 287.625 583C336.781 587.019 395.679 580.749 408.5 567.5C410.718 565.282 416.688 552.169 420.782 521.973C422.659 508.154 427.947 503.378 439.036 513.614C452.343 526.067 469.744 534.256 487.827 535.45C507.617 536.815 525.359 526.408 534.059 508.837C541.736 492.801 540.883 473.864 537.983 456.975Z" fill="#C5C7D2" fill-opacity="0.2"/>
<path d="M496.22 361.829C493.15 368.312 490.591 374.624 486.496 380.595C481.89 387.248 476.602 393.389 470.972 399.36C470.801 399.531 470.972 399.702 471.143 399.702C477.455 395.095 482.743 389.466 487.349 383.154C491.614 377.183 496.05 369.506 496.562 361.999C496.562 361.829 496.22 361.658 496.22 361.829Z" fill="#F5F5F5"/>
<path d="M274.102 291.031C270.861 284.548 266.937 279.601 259.601 278.406C252.266 277.212 244.589 279.942 237.935 282.671C225.482 287.96 212.857 295.807 203.816 306.726C196.992 314.914 257.725 324.638 267.79 324.638C287.067 324.809 279.561 302.29 274.102 291.031Z" fill="#FFA26E"/>
<path d="M277.002 308.944C275.808 305.19 274.784 299.902 269.666 299.39C268.472 299.219 265.231 299.39 263.013 300.072C259.942 301.096 260.795 303.143 261.648 305.02C263.354 308.773 265.401 312.014 270.178 312.526C273.59 313.038 278.026 312.014 277.002 308.944Z" fill="white"/>
<path d="M251.924 314.914C248.001 308.091 247.318 299.902 246.806 292.225C246.806 291.884 246.465 291.884 246.295 292.225C245.953 293.76 245.783 295.637 245.612 297.343C243.565 302.631 236.4 301.096 232.647 304.508C229.235 307.749 227.699 312.185 228.382 316.791C228.552 317.473 228.552 318.156 228.723 318.838C240.153 321.397 252.777 323.444 260.795 324.297C257.383 321.909 254.313 319.009 251.924 314.914Z" fill="#F4905D"/>
<path d="M333.129 238.487C320.846 237.122 308.222 236.61 295.938 237.122C272.055 237.975 261.478 258.788 280.755 276.359C305.151 298.878 347.8 301.608 366.737 272.947C373.39 262.882 374.925 247.358 353.942 241.728C346.265 239.681 337.906 238.998 333.129 238.487Z" fill="#F5F5F5"/>
<path d="M534.946 470.67C529.999 459.581 521.81 450.028 512.427 442.522C496.562 429.727 476.09 423.585 457.324 416.25C446.747 412.155 435.829 407.89 426.275 401.919C421.328 398.849 415.698 394.242 409.727 397.143C404.78 399.531 401.539 405.672 399.15 410.108C396.25 415.567 394.032 421.367 391.985 427.168C386.867 442.01 383.796 449.175 394.885 458.217C402.05 464.017 414.675 473.741 419.963 479.371C429.176 489.607 437.194 500.866 446.747 510.761C460.566 525.262 479.843 535.497 499.974 536.862C519.592 538.056 539.552 526.115 542.623 505.643C544.329 493.872 539.723 481.247 534.946 470.67Z" fill="#FFA26E"/>
<path d="M537.676 518.779C531.193 523.044 523.004 525.261 515.668 525.944C503.385 527.138 490.42 525.261 479.16 520.143C469.778 515.708 461.93 508.372 455.277 500.525C439.07 481.077 427.64 456.852 422.522 432.115C420.134 420.856 418.428 406.867 412.116 396.46C411.263 396.631 410.41 396.801 409.557 397.313C404.609 399.701 401.368 405.843 398.98 410.279C396.079 415.738 393.862 421.538 391.814 427.338C386.696 442.18 383.626 449.345 394.715 458.387C401.88 464.187 414.504 473.911 419.792 479.541C429.005 489.777 437.023 501.037 446.576 510.931C460.395 525.432 479.672 535.668 499.803 537.033C514.815 537.886 529.999 531.062 537.676 518.779Z" fill="#F4905D"/>
<path d="M187.438 324.809C162.702 331.121 129.947 336.58 104.357 338.969C81.3265 341.016 56.7604 341.016 37.1417 354.834C28.4412 360.976 21.1055 369.676 14.4522 378.036C7.96946 386.054 1.99853 395.437 0.292556 405.843C-0.901629 413.52 1.48674 422.562 7.96946 427.338C14.964 432.456 24.0057 434.333 32.3649 435.527C40.2124 436.551 48.2305 436.892 56.2486 437.062C67.5081 437.404 77.9146 435.186 88.4916 431.262C100.263 426.997 180.785 394.584 188.803 386.907C194.945 380.936 198.527 372.747 200.404 364.558C205.692 342.892 199.721 321.738 187.438 324.809Z" fill="#FFA26E"/>
<path d="M188.974 386.736C191.021 384.86 192.727 382.471 194.262 380.253C193.75 379.23 193.239 378.036 192.556 377.012C183.173 359.782 150.077 349.546 118.005 372.577C111.181 377.524 105.381 383.836 98.8981 389.125C90.3682 396.119 80.3029 401.237 70.2377 405.673C54.7133 412.667 32.7061 419.662 16.8405 410.108C8.65184 405.161 6.43408 397.143 6.77528 388.613C3.70452 393.901 1.14555 399.531 0.292556 405.502C-0.901629 413.179 1.48674 422.221 7.96946 426.997C14.964 432.115 24.0057 433.992 32.365 435.186C40.2125 436.21 48.2305 436.551 56.2486 436.721C67.5081 437.063 77.9146 434.845 88.4916 430.921C100.433 426.827 180.956 394.413 188.974 386.736Z" fill="#F4905D"/>
<path d="M399.662 339.992C398.297 334.362 396.591 329.245 391.132 326.515C383.967 322.932 369.125 321.738 366.737 331.633C364.86 339.651 369.978 351.934 376.461 356.711C387.208 364.729 406.145 367.8 403.756 355.175C402.903 350.057 400.856 345.11 399.662 339.992Z" fill="#FFA26E"/>
<path d="M405.633 359.099C402.05 356.199 379.702 344.428 375.778 343.745C368.443 342.381 365.201 344.769 357.866 344.769C355.136 344.769 317.604 331.974 308.733 327.368C305.492 325.662 303.615 321.738 302.421 320.715C295.768 314.744 278.026 310.991 269.155 310.138C266.425 309.967 259.772 312.185 252.607 315.426C232.476 324.638 222.923 333.339 211.663 360.805C208.081 369.335 205.01 378.377 204.328 387.589C203.816 396.289 208.251 401.578 217.975 400.725C226.676 400.043 250.73 379.912 263.525 369.335C268.643 365.07 270.008 366.605 273.59 368.311C274.273 368.653 275.126 368.994 276.149 369.506C278.879 370.87 278.879 372.235 278.026 375.818C277.173 378.889 276.49 381.789 276.661 384.859C277.002 389.124 281.779 391.342 285.191 392.878C291.332 395.607 297.815 397.825 303.957 400.896C309.586 403.625 312.998 399.872 317.434 396.631C318.628 395.778 319.822 394.925 321.016 394.072C323.064 392.536 326.476 392.536 327.67 393.048C330.399 394.242 332.958 395.266 335.517 396.46C340.976 398.848 340.635 405.672 338.076 414.714C327.329 453.269 350.018 440.645 366.054 430.58C378.167 422.903 392.497 412.496 403.415 398.507C407.168 393.219 410.239 362.852 405.633 359.099Z" fill="#3C68CD"/>
<path d="M305.321 332.315C304.81 332.145 299.35 342.551 298.327 347.84C297.986 349.546 338.247 365.07 338.588 364.558C341.147 360.464 343.535 354.152 345.924 348.522C346.094 348.01 319.31 338.116 305.321 332.315Z" fill="#2453B2"/>
<path d="M402.392 399.36C406.145 388.613 405.803 377.012 396.591 368.994C388.914 362.17 377.314 360.805 367.419 361.488C355.307 362.341 345.412 368.141 336.029 375.306C330.74 379.4 325.793 384.007 319.822 387.418C312.316 391.854 305.321 392.025 297.474 388.954C294.062 387.589 290.65 385.883 287.75 383.495C284.508 380.936 285.191 376.33 286.044 372.747C287.409 366.264 289.797 360.293 290.138 353.64C290.821 343.575 284.508 335.216 276.32 330.098C254.483 316.62 230.258 326.344 220.875 341.528C217.634 346.646 214.734 352.958 211.493 360.635C207.91 369.165 204.839 378.206 204.157 387.418C203.645 396.119 208.081 401.407 217.805 400.554C226.505 399.872 250.559 379.742 263.354 369.165C268.472 364.9 269.837 366.435 273.42 368.141C274.102 368.482 274.955 368.823 275.979 369.335C278.708 370.7 278.708 372.065 277.855 375.647C277.002 378.718 276.32 381.618 276.49 384.689C276.832 388.954 281.608 391.172 285.02 392.707C291.162 395.437 297.644 397.654 303.786 400.725C309.416 403.455 312.828 399.702 317.263 396.46C318.457 395.607 319.652 394.754 320.846 393.901C322.893 392.366 326.305 392.366 327.499 392.878C330.229 394.072 332.788 395.095 335.347 396.29C340.806 398.678 340.464 405.502 337.906 414.544C327.158 453.099 349.847 440.474 365.884 430.409C377.655 422.903 391.473 412.667 402.392 399.36Z" fill="#2453B2"/>
<path d="M363.495 251.793C362.813 247.869 361.619 244.287 361.789 240.363C361.789 237.122 362.472 218.527 362.13 206.926C361.96 202.661 361.789 197.714 350.359 196.349C341.318 195.325 300.033 196.349 295.085 196.519C288.773 196.861 286.214 199.42 286.214 205.22C286.044 215.115 286.385 225.18 283.997 234.733C282.291 241.728 279.22 248.722 280.073 256.058C280.926 263.906 287.92 268.512 294.403 271.924C303.957 276.871 314.875 278.748 325.623 278.918C335.005 279.089 345.071 277.383 353.601 273.118C361.96 268.512 365.201 260.835 363.495 251.793Z" fill="#E87F52"/>
<path d="M312.316 261.347C302.933 246.675 310.098 227.057 318.116 213.409C322.381 206.073 328.011 200.273 334.323 195.496C318.799 195.496 298.327 196.008 294.915 196.178C288.603 196.52 286.044 199.079 286.044 204.879C285.873 214.774 286.214 224.839 283.826 234.392C282.12 241.387 279.049 248.381 279.902 255.717C280.755 263.564 287.75 268.171 294.233 271.583C303.786 276.53 314.704 278.407 325.452 278.577C334.835 278.748 344.9 277.042 353.43 272.777C354.454 272.265 355.307 271.753 356.16 271.071C339.953 276.359 321.869 276.359 312.316 261.347Z" fill="#DB6B45"/>
<path d="M383.626 151.823C384.308 144.317 386.185 118.215 387.72 112.756C390.279 104.738 400.003 104.567 407.168 105.079C411.263 105.42 416.039 106.273 420.475 107.809C428.152 110.538 432.417 112.585 432.246 119.239C431.222 141.928 427.981 159.329 424.569 169.906C421.669 178.607 418.086 180.142 412.798 180.654C409.045 180.995 398.809 179.972 392.667 179.119C388.232 178.436 383.626 177.071 382.602 169.053C381.92 163.253 383.114 156.77 383.626 151.823Z" fill="#93426E"/>
<path d="M392.667 178.948C394.715 179.289 397.274 179.631 399.833 179.972C407.509 180.825 412.969 173.489 416.039 165.13C420.304 153.188 421.157 139.711 420.816 127.428C420.645 121.286 420.475 114.121 419.281 107.297C415.186 105.932 410.921 105.25 407.168 104.909C400.003 104.226 390.279 104.567 387.72 112.586C386.014 118.045 384.308 144.146 383.626 151.652C383.114 156.6 382.09 163.083 382.773 168.883C383.626 176.901 388.402 178.266 392.667 178.948Z" fill="#7C315D"/>
<path d="M369.637 35.987C353.771 30.1867 327.158 28.8219 304.468 33.2575C271.372 39.7402 249.365 65.8416 246.124 106.273C244.418 126.745 246.295 149.435 251.071 170.247C265.231 231.322 321.528 245.311 350.189 236.61C366.225 231.663 377.825 221.597 386.355 207.267C404.439 177.242 415.528 124.357 404.78 81.3661C399.662 61.2355 389.085 43.1521 369.637 35.987Z" fill="#FFA26E"/>
<path d="M404.609 81.3661C399.491 61.2355 389.085 43.1521 369.466 35.987C353.601 30.1867 326.987 28.8219 304.298 33.2575C271.202 39.7402 249.195 65.8416 245.953 106.273C244.247 126.745 246.124 149.435 250.901 170.247C261.478 215.456 295.086 234.904 323.405 238.316C322.211 237.975 320.846 237.634 319.652 237.292C308.222 233.88 297.474 228.421 288.773 220.233C280.585 212.726 274.102 202.661 273.42 191.402C272.908 180.995 279.561 171.953 287.92 166.494C302.933 156.941 323.064 156.088 340.294 156.429C350.871 156.6 361.619 157.453 372.196 157.964C382.261 158.476 393.691 158.306 403.586 160.865C409.727 135.787 411.092 106.785 404.609 81.3661Z" fill="#F4905D"/>
<path d="M387.038 28.8217C364.348 8.69117 334.664 4.25563 305.663 10.2266C279.22 15.6857 253.801 30.3571 240.665 54.7526C233.841 67.5474 229.747 82.56 229.064 97.0608C228.723 106.444 230.429 120.433 237.424 128.11C240.324 131.351 241.177 129.133 240.835 126.062C238.618 109.003 241.859 91.0899 252.607 77.2715C264.89 61.4059 286.556 61.7471 304.639 63.1119C323.575 64.6473 342 68.571 361.107 67.3768C369.466 66.865 381.067 65.5002 388.061 59.5293C393.862 64.8179 398.468 70.7888 402.05 78.2951C405.633 85.8014 406.657 93.8195 407.51 102.008C407.851 106.614 409.386 107.297 410.58 102.52C416.722 75.9067 407.51 47.0757 387.038 28.8217Z" fill="#521E3F"/>
<path d="M332.788 20.4625C330.57 17.5623 327.84 16.1975 324.77 15.8563C321.869 15.3446 308.221 15.8564 304.468 16.5387C302.592 16.8799 300.886 17.2211 299.35 17.9035C297.644 18.5859 298.327 19.2683 299.35 19.9507C311.463 27.9688 312.145 50.4877 312.145 63.9649C312.145 65.8415 313.681 66.3533 316.069 66.3533C324.087 66.1827 331.935 65.8415 339.953 65.6709C343.023 65.5003 343.365 65.1591 343.535 62.9413C344.218 47.5875 341.488 32.0631 332.788 20.4625Z" fill="#1B4C9B"/>
<path d="M318.799 50.3171C316.922 44.005 317.093 37.0105 319.822 31.0396C322.552 24.898 328.181 22.6803 334.323 22.5097C333.811 21.8273 333.299 21.1449 332.788 20.4625C330.57 17.5623 327.84 16.1975 324.77 15.8563C321.869 15.3446 308.221 15.8564 304.468 16.5387C302.592 16.8799 300.886 17.2211 299.35 17.9035C297.644 18.5859 298.327 19.2683 299.35 19.9507C311.463 27.9688 312.145 50.4877 312.145 63.9649C312.145 65.8415 313.681 66.3533 316.069 66.3533C320.334 66.1827 324.77 66.1827 329.034 66.0121C324.258 61.5766 320.505 56.288 318.799 50.3171Z" fill="#103E82"/>
<path d="M262.331 155.064C261.648 147.558 259.772 121.456 258.236 115.997C255.677 107.979 245.953 107.809 238.788 108.32C234.694 108.662 229.917 109.515 225.482 111.05C217.805 113.78 213.54 115.827 213.71 122.48C214.734 145.17 217.975 162.571 221.387 173.148C224.287 181.848 227.87 183.383 233.159 183.895C236.912 184.236 247.148 183.213 253.289 182.36C257.725 181.677 262.331 180.313 263.354 172.295C263.866 166.665 262.672 160.182 262.331 155.064Z" fill="#93426E"/>
<path d="M258.066 115.997C255.848 109.003 248.001 107.979 241.347 108.15C248.854 117.021 250.048 131.351 250.73 142.44C252.436 175.536 245.953 180.654 234.012 184.066C238.277 184.236 247.489 183.213 253.119 182.36C257.554 181.677 262.16 180.313 263.184 172.295C263.866 166.494 262.672 160.011 262.331 155.064C261.648 147.728 259.772 121.456 258.066 115.997Z" fill="#7C315D"/>
<path d="M229.576 123.333C225.141 114.974 213.028 112.586 213.711 125.38C214.905 146.705 217.976 163.253 221.387 173.318C225.823 186.454 233.5 176.219 234.865 170.248C237.765 158.306 234.694 132.887 229.576 123.333Z" fill="#D3D0FF"/>
<path d="M229.576 123.333C225.993 116.509 217.464 113.78 214.734 119.58C219.511 116.168 225.311 120.092 227.87 126.745C230.088 132.545 230.941 139.199 232.135 145.34C233.67 153.529 234.353 162.059 231.453 170.077C230.77 172.295 229.576 174.001 228.041 175.707C225.482 178.436 222.923 174.512 221.729 172.806C221.387 172.295 221.046 171.612 220.705 170.93C220.876 171.783 221.217 172.465 221.387 173.148C225.823 186.284 233.5 176.048 234.865 170.077C237.765 158.306 234.694 132.886 229.576 123.333Z" fill="#B1B1F2"/>
<path d="M393.009 51.8526C382.602 50.4878 372.025 49.976 361.619 49.8054C334.494 49.2936 280.073 51.8526 258.578 59.7001C253.118 61.7473 242.371 67.377 239.3 78.6364C235.717 91.9431 236.57 114.633 239.3 129.986C242.883 150.629 255.848 155.064 266.084 156.77C296.791 162.229 368.101 162.059 410.751 156.6C423.034 155.064 433.952 144.658 435.146 132.716C437.705 108.15 436.34 93.8197 435.829 83.4132C434.805 59.1883 419.451 55.2645 393.009 51.8526Z" fill="#3C68CD"/>
<path d="M427.469 75.0539C425.422 68.7418 421.328 63.7944 413.822 60.5531C393.691 52.0232 327.84 54.5822 292.527 58.3353C278.026 59.8707 268.302 63.112 262.842 69.083C255.166 77.6128 256.701 119.409 260.284 129.475C265.401 143.805 279.049 144.317 289.626 144.999C316.41 146.534 391.985 147.046 412.798 140.222C424.74 136.299 428.834 131.522 429.858 110.368C430.37 98.4258 429.687 82.0484 427.469 75.0539Z" fill="#1B4C9B"/>
<path d="M406.486 35.4752C398.468 25.0687 387.55 18.0742 375.949 12.1033C362.472 5.10878 348.824 1.18504 333.811 0.332052C306.004 -1.03273 275.467 5.44998 253.289 22.851C248.001 26.9453 238.788 34.281 237.765 42.1285C237.253 45.7111 241.859 51.5114 245.271 51.8526C247.148 52.0232 255.848 50.4878 258.236 49.123C260.795 47.5876 263.184 45.7111 265.402 44.0051C278.196 34.1104 292.356 26.6041 308.051 22.3392C325.793 17.5624 342.512 19.7802 359.06 27.2865C365.542 30.1867 371.684 33.9398 377.655 37.693C382.09 40.4225 386.185 43.4933 391.132 45.1993C391.814 45.3699 395.226 46.2229 398.638 45.8817C401.709 45.5405 404.78 44.3463 405.804 43.1521C407.851 40.7637 407.68 37.0106 406.486 35.4752Z" fill="#EB8382"/>
<path d="M368.101 26.9454C352.577 18.0743 336.029 13.6387 318.116 16.0271C302.08 18.2449 286.215 24.7276 272.567 33.7693C266.255 37.8636 258.748 43.8345 250.73 42.4698C247.489 41.958 244.759 39.399 241.347 39.399C240.153 39.399 238.959 39.5696 238.106 39.9108C237.935 40.5932 237.765 41.2756 237.594 41.958C237.082 45.5405 241.688 51.3408 245.1 51.682C246.977 51.8526 255.678 50.3173 258.066 48.9525C260.625 47.4171 263.013 45.5405 265.231 43.8345C278.026 33.9399 292.185 26.4336 307.88 22.1686C325.623 17.3919 342.341 19.6096 358.889 27.1159C365.372 30.0161 371.513 33.7693 377.484 37.5224C381.92 40.252 386.014 43.3227 390.962 45.0287C391.644 45.1993 395.056 46.0523 398.468 45.7111C401.027 45.5405 403.415 44.5169 404.78 43.6639C392.156 47.0759 379.19 33.2575 368.101 26.9454Z" fill="#C37A87"/>
<path d="M237.424 43.664C230.429 50.4879 219.511 67.3771 213.54 86.484C208.934 101.326 207.91 117.362 209.787 133.398C210.128 136.64 210.981 140.564 212.858 143.464C214.222 145.681 217.634 145.852 220.876 145.34C224.117 144.828 227.188 143.634 227.358 139.711C227.7 135.616 227.017 130.839 226.676 127.428C225.994 119.58 222.07 113.097 222.07 104.909C222.24 76.76 234.865 61.4062 245.271 49.4643C247.318 47.5877 241.177 39.9108 237.424 43.664Z" fill="#EB8382"/>
<path d="M295.427 336.41C288.944 329.586 281.096 323.956 273.078 319.179C264.89 314.403 255.677 310.138 245.953 307.408C233.329 303.996 215.928 299.731 201.086 307.238C188.632 313.379 178.738 325.492 171.573 337.092C164.408 348.352 158.948 361.658 159.46 375.306C159.631 379.4 160.484 383.324 162.019 386.907C162.019 386.907 162.019 387.077 162.19 387.077C163.043 388.954 164.066 390.66 165.09 392.195C165.09 392.195 165.09 392.366 165.261 392.366C165.431 392.707 165.602 392.878 165.943 393.219C169.355 397.996 173.62 402.261 178.397 405.331C186.073 410.279 214.052 410.449 227.87 410.79C234.011 410.961 239.129 406.355 241.006 403.284C244.247 403.284 247.318 402.431 250.218 400.725C254.313 398.166 257.042 393.731 257.383 389.295C257.895 389.295 258.236 389.295 258.748 389.125C264.89 388.101 267.96 382.13 269.496 376.5C270.349 373.429 270.861 368.312 268.813 366.606C268.131 366.094 259.089 367.117 253.118 363.023C249.365 360.464 246.295 357.052 243.394 353.811C240.835 351.081 236.912 346.646 235.035 342.381C233.159 337.604 234.694 335.557 238.959 336.922C249.365 339.992 259.431 344.769 268.472 351.081C275.808 356.199 283.655 361.829 293.038 361.999C298.327 362.17 303.957 358.929 304.298 353.128C304.468 346.304 299.692 341.187 295.427 336.41Z" fill="#FFA26E"/>
<path d="M426.616 384.348C426.105 379.571 422.693 375.306 420.134 371.382C416.892 366.776 414.163 362.17 410.239 358.076C402.903 350.569 391.473 350.569 381.749 350.228C371.855 349.887 361.789 349.716 351.895 351.252C344.047 352.446 338.417 355.517 338.076 364.047C337.906 370.017 343.365 372.918 348.312 374.282C360.254 377.524 373.731 374.794 385.332 378.036C390.45 379.4 390.791 381.277 389.597 385.542C389.256 386.565 388.914 387.589 388.573 388.613C386.697 393.048 382.432 394.584 379.361 395.948C375.608 397.484 371.343 399.36 368.272 400.213C363.836 401.578 359.572 402.09 355.307 399.872C352.236 398.337 349.677 395.607 346.435 394.584C339.27 392.025 331.764 391.854 324.599 394.584C321.699 395.607 319.14 397.654 319.481 400.554C317.263 402.431 316.751 405.161 317.946 408.914C320.334 417.444 323.917 427.68 329.546 434.674C329.717 434.845 329.887 435.186 330.229 435.356C330.911 439.11 333.982 442.522 337.735 445.422C342.512 449.004 347.8 452.075 352.918 455.316C358.036 458.558 363.836 462.652 369.807 463.676C376.973 464.87 386.867 464.699 393.52 461.629C397.103 459.923 400.344 454.463 401.709 451.051C402.05 450.198 402.392 449.175 402.562 448.322C405.462 446.786 408.192 444.739 410.41 442.522C413.992 438.939 414.845 433.992 414.504 429.044C418.257 425.632 421.669 421.709 423.887 417.614C427.128 411.643 426.105 403.625 423.034 397.484C425.422 393.219 427.128 388.783 426.616 384.348Z" fill="#FFA26E"/>
<path d="M358.036 179.46C347.118 182.872 333.811 184.236 316.24 180.995C306.174 179.118 301.056 185.942 303.274 194.472C305.321 202.32 309.927 207.779 315.728 211.532C335.858 224.156 357.183 214.944 364.178 206.414C367.931 201.808 370.319 196.519 371.172 191.572C372.537 182.019 365.542 177.071 358.036 179.46Z" fill="#7C2D0E"/>
<path d="M319.822 209.997C325.111 212.897 330.911 214.262 336.712 214.262C344.73 214.262 352.406 211.362 357.354 207.779C361.619 204.708 360.595 201.979 355.648 200.273C344.559 196.52 331.423 197.031 320.846 201.979C313.681 205.391 315.046 207.608 319.822 209.997Z" fill="#FF61AC"/>
<path d="M337.564 166.836C338.417 166.324 338.929 165.812 339.27 165.3C340.465 163.424 336.029 163.253 335.176 164.788C334.494 165.983 335.858 168.03 337.564 166.836Z" fill="#7C2D0E"/>
<path d="M344.218 166.153C343.535 165.812 343.194 165.3 342.853 164.959C341.829 163.423 345.582 163.423 346.265 164.447C346.777 165.471 345.582 167.006 344.218 166.153Z" fill="#7C2D0E"/>
<path d="M299.009 347.157C297.474 345.452 294.915 343.575 292.356 343.063C287.75 342.04 282.632 345.11 284.509 351.593C285.703 355.687 289.456 359.952 294.062 359.611C296.621 359.441 298.498 357.564 300.033 355.687C302.08 352.787 301.057 349.546 299.009 347.157Z" fill="white"/>
<path d="M342.682 359.27C340.294 362.682 340.806 367.458 343.877 369.676C347.459 372.406 355.307 370.7 357.866 367.458C359.401 365.582 359.742 363.193 359.06 361.146C358.207 358.758 358.377 357.905 353.43 356.881C350.018 356.199 344.9 356.028 342.682 359.27Z" fill="white"/>
<path d="M378.337 423.244C370.831 423.244 363.325 423.244 355.648 423.414C353.601 423.414 350.871 423.926 348.994 422.903C346.435 421.709 327.499 407.549 325.964 406.184C321.358 401.919 319.31 398.678 327.499 393.73C326.476 393.901 325.623 394.242 324.599 394.583C321.699 395.607 319.14 397.654 319.481 400.554C317.263 402.431 316.751 405.161 317.946 408.914C320.334 417.444 323.917 427.679 329.546 434.674C329.717 434.845 329.887 435.186 330.229 435.356C330.911 439.109 333.982 442.521 337.735 445.422C342.512 449.004 347.8 452.075 352.918 455.316C357.354 458.216 362.472 461.628 367.59 463.164C359.571 458.558 343.706 446.957 341.318 444.227C336.711 438.939 345.071 438.939 352.406 439.962C358.719 440.815 365.201 441.157 371.513 441.839C372.537 442.01 374.584 441.668 371.684 440.986C362.472 438.598 352.918 437.574 343.535 436.209C341.147 435.868 336.029 434.333 332.446 431.091C331.593 430.238 326.476 424.438 323.064 416.079C320.505 409.596 321.869 410.108 326.646 412.837C331.252 415.567 344.729 423.414 346.435 424.267C348.824 425.462 351.042 426.144 354.283 426.144C362.472 426.144 370.66 425.291 378.849 424.267C381.237 423.756 381.067 423.244 378.337 423.244Z" fill="#F4905D"/>
<path d="M268.472 366.606C267.79 366.094 258.748 367.117 252.777 363.023C249.024 360.464 245.953 357.052 243.053 353.811C240.665 351.252 237.082 347.157 235.206 343.234C235.888 345.793 237.253 348.181 238.447 350.399C241.177 355.176 244.759 359.952 248.683 363.876C252.948 368.141 258.066 369.335 263.013 372.235C267.79 374.965 261.819 381.789 259.601 384.007C255.848 387.589 242.03 384.86 232.817 380.083C223.776 375.477 215.075 369.676 206.886 364.388C206.545 364.217 206.204 364.729 206.545 364.9C216.099 373.6 227.188 380.765 238.959 386.054C242.03 387.418 245.1 388.613 248.171 389.466C248.683 389.807 249.195 390.148 249.706 390.489C253.63 393.56 249.365 397.996 246.636 399.531C241.518 402.431 232.306 400.213 225.652 397.996C218.487 395.778 211.493 392.536 204.839 389.124C204.327 388.783 203.986 389.466 204.327 389.807C210.469 394.413 218.658 398.849 227.358 401.749C231.964 403.284 234.864 406.696 228.894 408.402C227.699 408.743 226.505 409.084 225.311 409.255C209.275 410.108 191.874 405.502 178.397 396.46C166.284 388.271 162.19 375.306 160.996 361.829C159.972 366.264 159.46 370.7 159.631 375.135C159.801 379.23 160.654 383.154 162.19 386.736C162.19 386.736 162.19 386.907 162.36 386.907C163.213 388.783 164.237 390.489 165.261 392.025C165.261 392.025 165.261 392.195 165.431 392.195C165.602 392.536 165.772 392.707 166.114 393.048C169.526 397.825 173.79 402.09 178.567 405.161C184.026 408.743 200.063 409.767 213.881 410.279C214.052 410.279 214.052 410.279 214.222 410.279C215.416 410.279 216.611 410.279 217.634 410.449C217.805 410.449 217.975 410.449 218.146 410.449C219.34 410.449 220.364 410.449 221.558 410.449C221.728 410.449 221.728 410.449 221.899 410.449C223.093 410.449 224.117 410.449 225.14 410.449C226.164 410.449 227.188 410.449 228.211 410.449C228.894 410.449 229.576 410.449 230.258 410.279C230.429 410.279 230.429 410.279 230.6 410.279C231.282 410.108 231.794 410.108 232.306 409.767C232.476 409.767 232.647 409.596 232.817 409.596C233.329 409.426 233.67 409.255 234.182 409.084C234.523 408.914 234.694 408.914 235.035 408.743C235.206 408.573 235.376 408.573 235.547 408.402C238.276 406.867 240.324 404.649 241.347 403.113C244.589 403.113 247.659 402.26 250.559 400.555C254.654 397.996 257.383 393.56 257.725 389.124C258.236 389.124 258.578 389.124 259.089 388.954C265.231 387.93 268.302 381.959 269.837 376.33C270.008 373.429 270.519 368.312 268.472 366.606Z" fill="#F4905D"/>
<path d="M453.059 288.984C450.33 312.185 440.776 335.045 426.446 353.64C426.275 353.981 426.617 354.323 426.787 353.981C435.999 346.475 441.459 336.239 446.065 325.662C451.012 314.062 453.912 301.608 453.4 288.984C453.23 288.813 453.059 288.813 453.059 288.984Z" fill="#F5F5F5"/>
<path d="M169.867 270.9C166.455 284.548 167.99 299.39 170.379 313.038C170.379 313.379 170.72 313.208 170.89 313.038C171.914 299.049 170.208 284.889 170.208 270.9C170.208 270.73 169.867 270.73 169.867 270.9Z" fill="#F5F5F5"/>
<path d="M247.659 436.209C265.743 453.44 294.232 472.206 319.822 460.264C320.163 460.093 319.993 459.581 319.652 459.752C292.697 467.599 268.984 450.71 247.83 435.868C247.659 435.868 247.489 436.039 247.659 436.209Z" fill="#F5F5F5"/>
<path d="M317.093 465.382C321.869 466.746 326.134 465.723 329.717 462.14C329.887 461.97 329.717 461.629 329.376 461.629C325.793 463.505 321.187 464.87 317.263 465.04C316.922 465.04 316.922 465.382 317.093 465.382Z" fill="#F5F5F5"/>
<path d="M413.651 60.5531C393.52 52.0232 327.67 54.5822 292.356 58.3353C277.855 59.8707 268.131 63.112 262.672 69.083C261.648 70.2771 260.625 72.1537 259.942 74.5421C264.719 71.6419 270.008 69.2536 275.637 67.7182C287.579 64.4768 300.545 63.6238 312.828 62.7708C337.394 61.2355 362.472 61.0649 387.038 62.0884C399.662 62.6002 416.722 63.112 421.328 77.4423C424.057 85.8015 423.887 95.355 423.716 104.056C423.546 113.95 422.522 124.015 419.451 133.398C418.94 135.104 418.257 136.81 417.404 138.175C425.934 134.422 429.175 128.28 429.858 110.026C430.37 98.0846 429.687 81.5366 427.469 74.7127C425.422 68.7418 421.328 63.7944 413.651 60.5531Z" fill="#103E82"/>
<path d="M266.254 156.77C296.962 162.229 368.272 162.059 410.921 156.6C418.769 155.576 425.934 150.97 430.54 144.828C423.716 150.458 413.651 151.993 409.898 152.846C401.027 154.552 391.473 154.894 382.943 155.405C353.6 157.623 324.428 157.964 295.085 156.429C282.461 155.747 267.96 154.894 256.53 148.752C246.124 143.122 243.053 131.351 241.347 120.433C239.641 109.856 239.641 98.5963 240.324 87.8486C240.665 81.8777 241.688 75.2244 244.247 69.4241C242.03 71.983 240.324 75.0538 239.3 78.6363C235.717 91.943 236.57 114.632 239.3 129.986C242.883 150.629 256.019 155.064 266.254 156.77Z" fill="#1B4C9B"/>
<path d="M242.371 43.4934C243.053 52.1939 235.206 60.5532 230.6 67.2065C224.799 75.3952 221.387 84.6075 219.511 94.5022C217.805 103.544 218.828 112.074 221.046 120.945C222.07 125.551 223.093 130.328 222.411 135.104C221.728 140.222 218.146 143.464 213.71 144.317C215.416 145.681 218.146 145.681 220.875 145.17C224.117 144.658 227.188 143.464 227.358 139.54C227.699 135.446 227.017 130.669 226.676 127.257C225.993 119.409 222.07 112.927 222.07 104.738C222.24 76.5894 234.864 61.2356 245.271 49.2937C246.636 48.4407 244.93 45.1994 242.371 43.4934Z" fill="#C37A87"/>
<path d="M565.312 127.598C568.724 132.033 566.507 131.692 562.753 131.863C527.44 133.398 491.955 133.398 456.471 133.569C456.13 133.569 446.235 134.592 455.959 130.839C482.231 120.433 509.015 110.538 536.14 103.202C541.77 101.667 541.429 102.008 544.67 104.908C547.911 107.809 550.812 111.05 553.712 114.121C557.635 118.386 561.73 122.821 565.312 127.598ZM183.856 157.452C156.048 151.311 127.9 146.364 99.9216 140.905C91.5623 139.199 95.1449 143.463 96.5097 146.705C99.4098 153.699 102.31 160.523 105.722 167.177C108.281 172.124 108.622 171.783 114.081 171.1C137.624 168.371 160.996 164.788 184.197 160.694C193.239 159.158 187.609 158.135 183.856 157.452ZM497.244 81.1953C492.297 79.4893 487.008 78.2951 481.72 77.1009C478.649 76.4186 476.09 77.1009 474.384 79.3187C466.707 89.2134 459.542 99.7904 452.377 110.197C447.941 116.509 450.5 114.632 454.253 112.415C468.754 103.714 483.937 95.8667 498.097 86.4838C502.362 83.5837 501.509 82.7307 497.244 81.1953ZM165.261 100.814C161.507 102.349 157.584 103.885 153.831 105.25C148.03 107.467 149.224 108.15 153.148 110.368C163.555 115.997 174.302 121.115 185.05 126.404C189.997 128.792 190.168 128.28 187.268 124.015C182.662 116.85 177.714 109.856 172.426 103.032C170.037 99.6199 168.843 99.2787 165.261 100.814ZM475.749 172.124C468.925 166.494 461.93 161.206 454.765 156.088C452.206 154.211 451.012 154.723 452.377 157.794C457.324 168.712 462.101 179.801 467.389 190.548C470.119 196.178 470.631 195.666 472.848 190.378C474.384 186.795 475.919 183.383 477.455 179.971C480.014 174.001 479.161 174.853 475.749 172.124ZM192.386 172.636C182.832 179.971 173.449 187.648 164.408 195.666C160.484 199.078 161.166 200.102 165.261 199.761C168.331 199.59 171.232 199.42 174.302 198.908C178.567 198.225 180.103 197.372 183.685 192.254C187.78 186.284 191.703 180.483 195.456 174.171C199.551 166.835 194.262 171.1 192.386 172.636Z" fill="#EB8382"/>
<path d="M475.237 184.577C474.896 184.748 474.384 184.748 474.043 184.919C469.266 185.942 466.195 179.63 463.977 176.389C460.565 171.271 457.153 165.982 453.912 160.694C453.4 159.67 452.718 158.817 452.206 157.794C457.153 168.712 461.93 179.801 467.048 190.548C469.778 196.178 470.289 195.666 472.507 190.378C473.701 188.501 474.554 186.625 475.237 184.577Z" fill="#C37A87"/>
<path d="M553.712 113.95C552.688 112.756 551.665 111.732 550.641 110.538C551.665 112.756 552.517 115.144 553.541 117.362C555.076 120.603 557.977 126.915 552.688 127.939C546.717 129.133 540.234 129.133 534.264 129.645C512.598 131.01 490.761 131.863 469.095 132.886C463.465 133.057 458.006 133.398 452.377 133.739C453.571 134.08 456.3 133.739 456.642 133.739C491.955 133.398 527.44 133.569 562.924 132.033C566.677 131.863 568.895 132.204 565.483 127.768C561.73 122.821 557.635 118.385 553.712 113.95Z" fill="#C37A87"/>
<path d="M484.62 90.2368C480.696 93.1369 476.772 96.2077 472.848 99.1079C468.413 102.349 464.148 105.761 459.883 109.003C472.678 101.496 485.814 94.6723 498.097 86.313C502.362 83.4129 501.509 82.5599 497.244 81.1951C493.832 80.0009 490.42 79.1479 487.008 78.2949C488.543 79.6597 489.567 81.1951 489.738 83.2423C490.079 86.4836 486.837 88.5308 484.62 90.2368Z" fill="#C37A87"/>
<path d="M192.386 172.636C192.215 172.806 192.045 172.977 191.874 173.147C189.656 179.118 180.785 189.525 179.42 190.89C176.179 194.302 172.596 197.202 168.673 199.59C170.72 199.419 172.596 199.249 174.473 198.908C178.738 198.225 180.273 197.372 183.856 192.254C187.95 186.283 191.874 180.483 195.627 174.171C199.551 166.835 194.262 171.1 192.386 172.636Z" fill="#C37A87"/>
<path d="M177.032 120.774C172.084 117.703 166.967 114.462 162.36 110.879C160.313 109.344 158.437 107.297 158.095 104.738C158.095 104.396 158.095 103.885 158.095 103.543C156.56 104.055 155.195 104.738 153.66 105.249C147.86 107.467 149.054 108.15 152.978 110.367C163.384 115.997 174.132 121.115 184.879 126.404C186.756 127.257 187.779 127.768 188.462 127.939C184.879 125.551 180.956 123.162 177.032 120.774Z" fill="#C37A87"/>
<path d="M187.609 160.011C171.743 161.717 155.707 162.57 139.671 163.594C134.724 163.935 129.776 164.106 124.829 163.935C119.711 163.765 114.081 163.423 109.475 161.206C104.698 158.988 101.798 154.894 98.5569 151.14C100.775 156.6 103.163 162.059 105.893 167.347C108.452 172.295 108.793 171.953 114.252 171.271C137.794 168.541 161.166 164.959 184.368 160.864C185.732 160.523 186.756 160.182 187.609 160.011Z" fill="#C37A87"/>
</svg>
